<svg xmlns="http://www.w3.org/2000/svg" version="1.1">
  <defs>
    <symbol id="speedometer" viewBox="0 0 32 32">
      <title>Speedometer</title>
      <path d="M15.999 1.129c-8.812 0-15.98 7.169-15.98 15.981 0 5.536 2.803 10.6 7.497 13.544 0.467 0.296 1.084 0.152 1.378-0.316s0.152-1.085-0.316-1.378c-1.691-1.061-3.095-2.439-4.17-4.027l1.048-0.605c0.478-0.276 0.643-0.887 0.366-1.366-0.277-0.48-0.889-0.642-1.366-0.366l-1.050 0.606c-0.763-1.579-1.228-3.306-1.353-5.107h1.113c0.552 0 1-0.448 1-1s-0.447-1-1-1h-1.108c0.132-1.834 0.618-3.572 1.393-5.143l1.005 0.58c0.157 0.091 0.329 0.134 0.499 0.134 0.346 0 0.681-0.179 0.867-0.5 0.277-0.479 0.112-1.090-0.366-1.366l-0.995-0.574c1.003-1.463 2.277-2.728 3.75-3.719l0.563 0.975c0.185 0.322 0.521 0.5 0.867 0.5 0.17 0 0.342-0.043 0.499-0.134 0.479-0.277 0.643-0.887 0.366-1.366l-0.561-0.971c1.542-0.744 3.24-1.208 5.030-1.338v1.246c0 0.553 0.447 1 1 1s1-0.447 1-1v-1.25c1.831 0.127 3.567 0.606 5.137 1.373l-0.543 0.939c-0.276 0.479-0.113 1.090 0.366 1.366 0.157 0.091 0.329 0.134 0.499 0.134 0.346 0 0.681-0.178 0.867-0.5l0.54-0.936c1.459 0.993 2.721 2.255 3.715 3.713l-0.936 0.541c-0.479 0.277-0.642 0.887-0.366 1.366 0.186 0.322 0.521 0.5 0.867 0.5 0.17 0 0.342-0.043 0.499-0.134l0.942-0.543c0.768 1.571 1.248 3.307 1.377 5.139h-1.098c-0.552 0-1 0.448-1 1s0.448 1 1 1h1.098c-0.127 1.777-0.581 3.482-1.328 5.041l-0.99-0.572c-0.477-0.276-1.091-0.111-1.366 0.366-0.276 0.479-0.113 1.090 0.366 1.366l0.993 0.573c-1.097 1.633-2.545 3.044-4.292 4.119-0.471 0.29-0.616 0.907-0.327 1.376 0.189 0.306 0.517 0.476 0.852 0.476 0.178 0 0.36-0.048 0.523-0.148 4.764-2.934 7.608-8.024 7.608-13.614 0-8.811-7.169-15.98-15.98-15.98zM23.378 13.992c0.478-0.277 0.642-0.887 0.366-1.366s-0.888-0.642-1.366-0.366l-5.432 3.136c-0.29-0.164-0.62-0.265-0.977-0.265-1.102 0-1.995 0.893-1.995 1.994 0 1.102 0.893 1.995 1.995 1.995s1.995-0.893 1.995-1.995c0-0.002-0-0.005-0-0.007z"></path>
    </symbol>
    <symbol id="user" viewBox="0 0 32 32">
      <title>User</title>
      <path d="M15.992 2c3.396 0 6.998 2.86 6.998 4.995v4.997c0 1.924-0.8 5.604-2.945 7.293-0.547 0.43-0.831 1.115-0.749 1.807 0.082 0.692 0.518 1.291 1.151 1.582l8.703 4.127c0.068 0.031 0.834 0.16 0.834 1.23l0.001 1.952-27.984 0.002v-2.029c0-0.795 0.596-1.045 0.835-1.154l8.782-4.145c0.63-0.289 1.065-0.885 1.149-1.573s-0.193-1.37-0.733-1.803c-2.078-1.668-3.046-5.335-3.046-7.287v-4.997c0.001-2.089 3.638-4.995 7.004-4.995zM15.992-0c-4.416 0-9.004 3.686-9.004 6.996v4.997c0 2.184 0.997 6.601 3.793 8.847l-8.783 4.145s-1.998 0.89-1.998 1.999v3.001c0 1.105 0.895 1.999 1.998 1.999h27.986c1.105 0 1.999-0.895 1.999-1.999v-3.001c0-1.175-1.999-1.999-1.999-1.999l-8.703-4.127c2.77-2.18 3.708-6.464 3.708-8.865v-4.997c0-3.31-4.582-6.995-8.998-6.995v0z"></path>
    </symbol>
    <symbol id="notebook" viewBox="0 0 32 32">
      <title>Notebook</title>
      <path d="M26.536 0h-19.937c-1.438 0-2.063 1.063-2.063 2.063v3.979h-1.091c-0.541 0-0.979 0.439-0.979 0.98s0.438 0.98 0.979 0.98h1.091v4.024h-0.998c-0.541 0-0.98 0.438-0.98 0.979s0.438 0.98 0.979 0.98h0.998v4.045h-1.019c-0.541 0-0.979 0.439-0.979 0.98s0.438 0.98 0.979 0.98h1.019v4.014h-1.019c-0.541 0-0.979 0.439-0.979 0.98s0.438 0.98 0.979 0.98h1.019v4.040c0 1.657 1.298 2 2.016 2h19.985c1.657 0 3-1.343 3-3v-26c0-1.657-1.343-3-3-3zM6.535 30l-0-4.040h1.042c0.541 0 0.979-0.439 0.979-0.98s-0.438-0.98-0.979-0.98h-1.042v-4.014h1.042c0.541 0 0.979-0.439 0.979-0.98s-0.438-0.98-0.979-0.98h-1.042v-4.045h1.063c0.541 0 0.98-0.438 0.98-0.98s-0.438-0.979-0.979-0.979h-1.063v-4.024h0.97c0.541 0 0.979-0.439 0.979-0.979s-0.438-0.98-0.979-0.98h-0.97v-3.978c0-0.023 0.002-0.043 0.005-0.060 0.016-0.001 0.035-0.002 0.059-0.002h15.938v28h-16.001zM27.536 29c0 0.552-0.448 1-1 1h-2v-28h2c0.552 0 1 0.448 1 1v26z"></path>
    </symbol>
    <symbol id="question" viewBox="0 0 32 32">
      <title>Question</title>
      <path d="M16 0c-8.836 0-16 7.163-16 16s7.163 16 16 16c8.837 0 16.001-7.163 16.001-16s-7.163-16-16.001-16zM16 30.032c-7.72 0-14-6.312-14-14.032s6.28-14 14-14 14.001 6.28 14.001 14-6.281 14.032-14.001 14.032zM14.53 25.015h2.516v-2.539h-2.516zM15.97 6.985c-1.465 0-2.672 0.395-3.62 1.184s-1.409 2.37-1.386 3.68l0.037 0.073h2.295c0-0.781 0.261-1.904 0.781-2.308s1.152-0.604 1.893-0.604c0.854 0 1.511 0.232 1.971 0.696s0.689 1.127 0.689 1.989c0 0.725-0.17 1.343-0.512 1.855-0.343 0.512-0.916 1.245-1.721 2.198-0.831 0.749-1.344 1.351-1.538 1.806s-0.297 1.274-0.305 2.454h2.405c0-0.74 0.047-1.285 0.14-1.636s0.36-0.744 0.799-1.184c0.945-0.911 1.703-1.802 2.277-2.674 0.573-0.87 0.86-1.831 0.86-2.881 0-1.465-0.443-2.607-1.331-3.424s-2.134-1.226-3.736-1.226z"></path>
      </symbol>
    <symbol id="logout" viewBox="0 0 32 32">
      <title>Logout</title>
      <path d="M3.651 16.989h17.326c0.553 0 1-0.448 1-1s-0.447-1-1-1h-17.264l3.617-3.617c0.391-0.39 0.391-1.024 0-1.414s-1.024-0.39-1.414 0l-5.907 6.062 5.907 6.063c0.196 0.195 0.451 0.293 0.707 0.293s0.511-0.098 0.707-0.293c0.391-0.39 0.391-1.023 0-1.414zM29.989 0h-17c-1.105 0-2 0.895-2 2v9h2.013v-7.78c0-0.668 0.542-1.21 1.21-1.21h14.523c0.669 0 1.21 0.542 1.21 1.21l0.032 25.572c0 0.668-0.541 1.21-1.21 1.21h-14.553c-0.668 0-1.21-0.542-1.21-1.21v-7.824l-2.013 0.003v9.030c0 1.105 0.895 2 2 2h16.999c1.105 0 2.001-0.895 2.001-2v-28c-0-1.105-0.896-2-2-2z"></path>
    </symbol>
    <symbol id="calendar" viewBox="0 0 32 32">
      <title>Calendar</title>
      <path d="M30 2.997l-8.007 0v-1.993c0-0.552-0.448-1-1-1s-1 0.448-1 1v1.992h-8v-1.992c0-0.552-0.447-1-1-1s-1 0.448-1 1v1.992h-7.993c-1.105 0-2 0.895-2 2v25c0 1.105 0.895 2 2 2h28c1.105 0 2-0.895 2-2v-25c0-1.104-0.895-2-2-2zM30 29.996l-28-0v-25h7.993v1.008c0 0.553 0.447 1 1 1s1-0.447 1-1v-1.007h8v1.008c0 0.553 0.448 1 1 1s1-0.447 1-1v-1.008h8.007v24.999zM23 15.996h2c0.552 0 1-0.448 1-1v-2c0-0.552-0.448-1-1-1h-2c-0.552 0-1 0.448-1 1v2c0 0.552 0.448 1 1 1zM23 23.996h2c0.552 0 1-0.448 1-1v-2c0-0.552-0.448-1-1-1h-2c-0.552 0-1 0.448-1 1v2c0 0.553 0.448 1 1 1zM17 19.996h-2c-0.552 0-1 0.448-1 1v2c0 0.552 0.448 1 1 1h2c0.552 0 1-0.448 1-1v-2c0-0.552-0.448-1-1-1zM17 11.996h-2c-0.552 0-1 0.448-1 1v2c0 0.552 0.448 1 1 1h2c0.552 0 1-0.448 1-1v-2c0-0.553-0.448-1-1-1zM9 11.996h-2c-0.552 0-1 0.448-1 1v2c0 0.552 0.448 1 1 1h2c0.552 0 1-0.448 1-1v-2c0-0.553-0.448-1-1-1zM9 19.996h-2c-0.552 0-1 0.448-1 1v2c0 0.552 0.448 1 1 1h2c0.552 0 1-0.448 1-1v-2c0-0.552-0.448-1-1-1z"></path>
    </symbol>
    <symbol id="envelope" viewBox="0 0 32 32">
      <title>Envelope</title>
      <path d="M31.983 7.25c0.031-0.192 0.006-0.39-0.077-0.571-0.252-1.107-1.053-1.679-2.406-1.679h-26c-1.19 0-2.472 0.438-3.103 1.296-0.054 0.042-0.106 0.088-0.153 0.143-0.202 0.232-0.272 0.532-0.227 0.814-0.009 0.081-0.017 0.162-0.017 0.247v16c0 1.657 1.843 3.5 3.5 3.5h26c1.657 0 2.5-1.843 2.5-3.5v-16c0-0.088-0.012-0.166-0.017-0.25zM3.5 7l26.014-0-13.514 10.77-13.459-10.726c0.306-0.056 0.683-0.044 0.959-0.044zM29.5 25h-26c-0.551 0-1.5-0.948-1.5-1.5v-14.326l13.345 10.677c0.188 0.163 0.421 0.244 0.655 0.244s0.467-0.081 0.655-0.244l13.345-10.676v14.326c0 0.552 0.052 1.5-0.5 1.5z"></path>
    </symbol>
    <symbol id="directions" viewBox="0 0 32 32">
      <title>Directions</title>
      <path d="M31.783 5.814l-3.116-3.479c-0.189-0.214-0.462-0.336-0.748-0.336h-10.945v-1.062c0-0.517-0.448-0.938-1-0.938s-1 0.42-1 0.938v1.062h-7.994c-0.553 0-1 0.448-1 1v6.989c0 0.553 0.447 1 1 1h7.994v2.003h-10.893c-0.286 0-0.558 0.122-0.748 0.336l-3.115 3.541c-0.336 0.379-0.336 0.949 0 1.328l3.115 3.509c0.191 0.214 0.462 0.305 0.748 0.305h10.893v9.052c0 0.517 0.448 0.938 1 0.938s1-0.42 1-0.938v-9.053h8.015c0.552 0 1-0.448 1-1v-7.019c0-0.553-0.448-1-1-1h-8.014v-2.003h10.945c0.286 0 0.558-0.122 0.748-0.336l3.116-3.51c0.335-0.378 0.335-0.949 0-1.328v-0zM23.989 20.010h-19.459l-2.228-2.477 2.228-2.541h19.459v5.018zM27.47 8.989h-19.49v-4.989h19.49l2.227 2.479z"></path>
    </symbol>
    <symbol id="bell" viewBox="0 0 32 32">
      <title>Bell</title>
      <path d="M28.3 22.247c-1.167-1.419-2.765-3.429-2.765-5.48v-6.53c0-5.625-4.207-10.202-9.584-10.202-5.378 0-9.552 4.577-9.552 10.202v6.53c0 2.016-1.734 3.921-2.833 5.4-0.989 1.328-1.77 2.378-1.242 3.427 0.463 0.923 1.624 1.041 2.583 1.041h5.73c0.002 2.944 2.389 5.331 5.333 5.331s5.333-2.386 5.334-5.331h5.864c0.61 0 2.036 0 2.527-1.038 0.495-1.050-0.297-2.016-1.395-3.351zM15.969 29.871c-1.788 0-3.239-1.448-3.241-3.235h6.482c-0.003 1.787-1.452 3.235-3.241 3.235zM27.168 24.506h-22.262c-0.153 0-0.281-0.005-0.386-0.012 0.206-0.319 0.508-0.727 0.755-1.058 1.218-1.637 3.255-3.949 3.255-6.669v-6.53c0-4.452 3.22-8.073 7.423-8.073s7.455 3.622 7.455 8.073v6.53c0 2.813 1.878 5.164 3.249 6.832 0.231 0.281 0.507 0.617 0.722 0.905-0.064 0.002-0.134 0.003-0.209 0.003z"></path>
    </symbol>
    <symbol id="plus" viewBox="0 0 24 24">
      <title>Plus</title>
      <path d="M12 2q0.414 0 0.707 0.293t0.293 0.707v8h8q0.414 0 0.707 0.293t0.293 0.707-0.293 0.707-0.707 0.293h-8v8q0 0.414-0.293 0.707t-0.707 0.293-0.707-0.293-0.293-0.707v-8h-8q-0.414 0-0.707-0.293t-0.293-0.707 0.293-0.707 0.707-0.293h8v-8q0-0.414 0.293-0.707t0.707-0.293z"></path>
    </symbol>
    <symbol id="reply" viewBox="0 0 32 32">
      <title>Reply</title>
      <path d="M30.939 29.448c-0.011 0-0.023 0-0.034-0.001-0.506-0.017-0.825-0.409-0.868-0.913-0.034-0.371-1.061-9.347-15.070-9.337v5.739c0 0.387-0.223 0.739-0.573 0.904-0.347 0.166-0.764 0.115-1.062-0.132l-12.968-10.743c-0.233-0.191-0.366-0.475-0.365-0.774s0.136-0.584 0.368-0.774l12.967-10.643c0.299-0.244 0.712-0.291 1.061-0.128 0.348 0.166 0.572 0.518 0.572 0.903v5.614c5.811 0.184 10.344 2.053 13.261 5.468 4.748 5.556 3.688 13.63 3.639 13.966-0.074 0.489-0.433 0.849-0.927 0.849zM13.967 17.182l0.002-0c10.007 0.006 13.831 3.385 16.014 6.369-0.32-2.39-1.252-5.273-3.282-7.626-2.698-3.128-7.045-4.777-12.735-4.777-0.553 0-1-0.447-1-1v-4.493l-10.389 8.543 10.389 8.622v-4.637c0-0.265 0.105-0.52 0.294-0.708 0.188-0.187 0.441-0.293 0.707-0.293z"></path>
    </symbol>
    <symbol id="chart" viewBox="0 0 32 32">
      <title>Chart</title>
      <path d="M8.502 9.999h-7.002c-0.552 0-1 0.447-1 1v20.001c0 0.552 0.448 1 1 1h7.002c0.553 0 1-0.448 1-1v-20c0-0.553-0.447-1-1-1zM7.502 30h-5.002v-18h5.002v18zM19.492 15.945h-7.003c-0.553 0-1 0.448-1 1v14.055c0 0.552 0.447 1 1 1h7.003c0.552 0 1-0.448 1-1v-14.055c0-0.553-0.447-1-1-1zM18.492 30h-5.003v-12.055h5.003v12.055zM30.5 0h-6.992c-0.552 0-1 0.448-1 1v30c0 0.552 0.448 1 1 1h6.992c0.552 0 1-0.448 1-1v-30c0-0.552-0.448-1-1-1zM29.5 30h-4.992v-28h4.992v28z"></path>
    </symbol>
    <symbol id="arrow-right" viewBox="0 0 24 24">
      <title>Arrow-right</title>
      <path d="M14 4q0.422 0 0.711 0.289l7 7q0.289 0.289 0.289 0.711t-0.289 0.711l-7 7q-0.289 0.289-0.711 0.289-0.43 0-0.715-0.285t-0.285-0.715q0-0.422 0.289-0.711l5.297-5.289h-15.586q-0.414 0-0.707-0.293t-0.293-0.707 0.293-0.707 0.707-0.293h15.586l-5.297-5.289q-0.289-0.289-0.289-0.711 0-0.43 0.285-0.715t0.715-0.285z"></path>
    </symbol>
    <symbol id="pencil" viewBox="0 0 32 32">
      <title>Pencil</title>
      <path d="M30.133 1.552c-1.090-1.044-2.291-1.573-3.574-1.573-2.006 0-3.47 1.296-3.87 1.693-0.564 0.558-19.786 19.788-19.786 19.788-0.126 0.126-0.217 0.284-0.264 0.456-0.433 1.602-2.605 8.71-2.627 8.782-0.112 0.364-0.012 0.761 0.256 1.029 0.193 0.192 0.45 0.295 0.713 0.295 0.104 0 0.208-0.016 0.31-0.049 0.073-0.024 7.41-2.395 8.618-2.756 0.159-0.048 0.305-0.134 0.423-0.251 0.763-0.754 18.691-18.483 19.881-19.712 1.231-1.268 1.843-2.59 1.819-3.925-0.025-1.319-0.664-2.589-1.901-3.776zM22.37 4.87c0.509 0.123 1.711 0.527 2.938 1.765 1.24 1.251 1.575 2.681 1.638 3.007-3.932 3.912-12.983 12.867-16.551 16.396-0.329-0.767-0.862-1.692-1.719-2.555-1.046-1.054-2.111-1.649-2.932-1.984 3.531-3.532 12.753-12.757 16.625-16.628zM4.387 23.186c0.55 0.146 1.691 0.57 2.854 1.742 0.896 0.904 1.319 1.9 1.509 2.508-1.39 0.447-4.434 1.497-6.367 2.121 0.573-1.886 1.541-4.822 2.004-6.371zM28.763 7.824c-0.041 0.042-0.109 0.11-0.19 0.192-0.316-0.814-0.87-1.86-1.831-2.828-0.981-0.989-1.976-1.572-2.773-1.917 0.068-0.067 0.12-0.12 0.141-0.14 0.114-0.113 1.153-1.106 2.447-1.106 0.745 0 1.477 0.34 2.175 1.010 0.828 0.795 1.256 1.579 1.27 2.331 0.014 0.768-0.404 1.595-1.24 2.458z"></path>
    </symbol>
    <symbol id="share" viewBox="0 0 32 32">
      <title>Share</title>
      <path d="M28.183 29.668h-26v-20h8.050l2.023-1.948-0.052-0.052h-10.021c-1.105 0-2 0.896-2 2v20c0 1.105 0.895 2 2 2h26c1.105 0 2-0.895 2-2v-15.646l-2 1.909v13.737zM8.442 21.668l2.015-0c1.402-7.953 8.329-14 16.684-14 0.351 0 0.683 0.003 1.019 0.005l-3.664 3.664c-0.39 0.39-0.39 1.024 0 1.414 0.195 0.196 0.452 0.293 0.708 0.293s0.511-0.098 0.706-0.293l5.907-6.063-5.907-6.064c-0.39-0.391-1.023-0.391-1.414 0-0.39 0.391-0.39 1.024 0 1.414l3.631 3.63c-0.314-0-0.624-0.002-0.944-0.002-9.47 0-17.299 6.936-18.741 16.001z"></path>
    </symbol>
    <symbol id="link" viewBox="0 0 32 32">
      <title>Link</title>
      <path d="M9.239 22.889c0.195 0.195 0.451 0.293 0.707 0.293s0.511-0.098 0.707-0.293l12.114-12.209c0.39-0.39 0.39-1.024 0-1.414s-1.023-0.39-1.414 0l-12.114 12.209c-0.391 0.39-0.391 1.023 0 1.414zM14.871 20.76c0.331 1.457-0.026 2.887-1.152 4.014l-4.039 3.914c-0.85 0.849-1.98 1.317-3.182 1.317s-2.332-0.468-3.182-1.317c-1.754-1.755-1.754-4.61-0.010-6.354l3.946-4.070c0.85-0.849 1.98-1.318 3.182-1.318 0.411 0 0.807 0.073 1.193 0.179l1.561-1.561c-0.871-0.407-1.811-0.619-2.754-0.619-1.663 0-3.327 0.635-4.596 1.904l-3.936 4.061c-2.538 2.538-2.538 6.654 0 9.193 1.269 1.27 2.933 1.904 4.596 1.904s3.327-0.634 4.596-1.904l4.030-3.904c1.942-1.942 2.361-4.648 1.333-7.023zM30.098 1.899c-1.27-1.269-2.933-1.904-4.596-1.904-1.664 0-3.328 0.635-4.596 1.904l-4.029 3.905c-2.012 2.013-2.423 5.015-1.244 7.439l1.552-1.552c-0.459-1.534-0.107-3.261 1.096-4.463l4.039-3.914c0.851-0.849 1.98-1.318 3.183-1.318 1.201 0 2.332 0.469 3.181 1.318 1.754 1.755 1.754 4.611 0.010 6.354l-4.039 4.039c-0.849 0.85-1.98 1.317-3.181 1.317-0.306 0-0.576 0.031-0.87-0.029l-1.593 1.594c0.796 0.331 1.613 0.436 2.463 0.436 1.663 0 3.326-0.634 4.596-1.904l4.029-4.029c2.538-2.538 2.538-6.653-0-9.192z"></path>
    </symbol>
    <symbol id="doc" viewBox="0 0 32 32">
      <title>Doc</title>
      <path d="M17.5 0h-11c-1.104 0-2 0.895-2 2v28c0 1.105 0.896 2 2 2h19c1.105 0 2-0.895 2-2v-20zM25.5 10.829v0.171h-9v-9h0.172zM6.5 30v-28h8v11h11v17h-19z"></path>
    </symbol>
    <symbol id="close" viewBox="0 0 24 24">
      <title>Close</title>
      <path d="M19 4q0.43 0 0.715 0.285t0.285 0.715q0 0.422-0.289 0.711l-6.297 6.289 6.297 6.289q0.289 0.289 0.289 0.711 0 0.43-0.285 0.715t-0.715 0.285q-0.422 0-0.711-0.289l-6.289-6.297-6.289 6.297q-0.289 0.289-0.711 0.289-0.43 0-0.715-0.285t-0.285-0.715q0-0.422 0.289-0.711l6.297-6.289-6.297-6.289q-0.289-0.289-0.289-0.711 0-0.43 0.285-0.715t0.715-0.285q0.422 0 0.711 0.289l6.289 6.297 6.289-6.297q0.289-0.289 0.711-0.289z"></path>
    </symbol>
    <symbol id="trash" viewBox="0 0 32 32">
      <title>Trash</title>
      <path d="M28.025 4.97l-7.040 0v-2.727c0-1.266-1.032-2.265-2.298-2.265h-5.375c-1.267 0-2.297 0.999-2.297 2.265v2.727h-7.040c-0.552 0-1 0.448-1 1s0.448 1 1 1h1.375l2.32 23.122c0.097 1.082 1.019 1.931 2.098 1.931h12.462c1.079 0 2-0.849 2.096-1.921l2.322-23.133h1.375c0.552 0 1-0.448 1-1s-0.448-1-1-1zM13.015 2.243c0-0.163 0.133-0.297 0.297-0.297h5.374c0.164 0 0.298 0.133 0.298 0.297v2.727h-5.97zM22.337 29.913c-0.005 0.055-0.070 0.11-0.105 0.11h-12.463c-0.035 0-0.101-0.055-0.107-0.12l-2.301-22.933h17.279z"></path>
    </symbol>
    <symbol id="flag" viewBox="0 0 32 32">
      <title>Flag</title>
      <path d="M21.25 2.979c-5 0-6.333-3-12.666-3-4.084 0-6.584 3.084-6.584 3.084v27.958c0 0.552 0.448 1 1 1s1-0.448 1-1v-12.746c1.055-0.68 2.511-1.296 4.334-1.296 6.333 0 8.166 3 13.166 3s8.5-3 8.5-3v-17s-3.75 3-8.75 3zM28 15.96c-1.13 0.737-3.524 2.019-6.5 2.019-1.966 0-3.308-0.54-5.007-1.223-2.071-0.832-4.419-1.777-8.159-1.777-1.709 0-3.159 0.43-4.334 1.005v-12.108c0.753-0.685 2.394-1.897 4.584-1.897 2.941 0 4.597 0.714 6.35 1.469 1.746 0.752 3.552 1.531 6.316 1.531 2.664 0 5.004-0.737 6.75-1.529v12.509z"></path>
    </symbol>
    <symbol id="refresh" viewBox="0 0 32 32">
      <title>Refresh</title>
      <path d="M15.544 28.080c-0.002-0.006-0.008-0.010-0.012-0.015l-2.873-4.489c-0.204-0.335-0.646-0.454-0.992-0.266l-0.256 0.157c-0.344 0.188-0.337 0.673-0.133 1.008l1.841 2.857c-0.157-0.035-0.316-0.063-0.471-0.103-3.224-0.843-5.953-3.026-7.485-5.988-1.448-2.797-1.72-5.99-0.766-8.992s3.118-5.452 5.915-6.899c0.476-0.247 0.662-0.832 0.416-1.308-0.246-0.477-0.832-0.663-1.308-0.416-3.258 1.686-5.763 4.54-6.874 8.036s-0.794 7.215 0.892 10.473c1.786 3.448 4.963 5.989 8.72 6.973 0.043 0.011 0.087 0.017 0.13 0.028l-2.541 1.288c-0.344 0.189-0.458 0.613-0.254 0.948l0.098 0.256c0.205 0.335 0.557 0.454 0.9 0.266l4.651-2.381c0.006-0.004 0.012-0.003 0.018-0.007l0.312-0.171c0.172-0.095 0.287-0.249 0.332-0.422 0.047-0.172 0.025-0.364-0.076-0.531zM28.559 10.025c-1.783-3.447-4.862-5.988-8.618-6.972-0.267-0.070-0.541-0.124-0.814-0.179l2.494-1.265c0.344-0.189 0.549-0.614 0.345-0.949l-0.099-0.255c-0.205-0.336-0.648-0.454-0.991-0.267l-4.651 2.381c-0.006 0.003-0.012 0.002-0.018 0.006l-0.312 0.171c-0.173 0.095-0.287 0.249-0.332 0.422-0.047 0.172-0.025 0.364 0.077 0.53l0.185 0.304c0.003 0.006 0.008 0.010 0.012 0.016l2.873 4.489c0.203 0.335 0.646 0.454 0.991 0.266l0.226-0.157c0.344-0.188 0.366-0.673 0.163-1.008l-1.85-2.87c0.407 0.063 0.811 0.138 1.207 0.242 3.226 0.845 5.856 3.027 7.387 5.986 1.448 2.797 1.72 5.99 0.765 8.991s-3.020 5.451-5.818 6.901c-0.476 0.247-0.662 0.831-0.415 1.308 0.172 0.332 0.511 0.524 0.863 0.524 0.15 0 0.302-0.035 0.446-0.109 3.259-1.686 5.664-4.54 6.776-8.035 1.111-3.497 0.794-7.217-0.893-10.473z"></path>
    </symbol>
    <symbol id="list" viewBox="0 0 32 32">
      <title>List</title>
      <path d="M3 14h-2c-0.552 0-1 0.448-1 1v2c0 0.552 0.448 1 1 1h2c0.552 0 1-0.448 1-1v-2c0-0.552-0.448-1-1-1zM31 15h-21c-0.552 0-1 0.448-1 1s0.448 1 1 1h21c0.552 0 1-0.448 1-1s-0.448-1-1-1zM3 22h-2c-0.552 0-1 0.448-1 1v2c0 0.552 0.448 1 1 1h2c0.552 0 1-0.448 1-1v-2c0-0.552-0.448-1-1-1zM31 23h-21c-0.552 0-1 0.448-1 1s0.448 1 1 1h21c0.552 0 1-0.448 1-1s-0.448-1-1-1zM3 6h-2c-0.552 0-1 0.448-1 1v2c0 0.552 0.448 1 1 1h2c0.552 0 1-0.448 1-1v-2c0-0.552-0.448-1-1-1zM10 9h21c0.552 0 1-0.448 1-1s-0.448-1-1-1h-21c-0.552 0-1 0.448-1 1s0.448 1 1 1z"></path>
    </symbol>
    <symbol id="chevron-left" viewBox="0 0 32 32">
      <title>chevron-left</title>
      <path d="M23.505 0c0.271 0 0.549 0.107 0.757 0.316 0.417 0.417 0.417 1.098 0 1.515l-14.258 14.264 14.050 14.050c0.417 0.417 0.417 1.098 0 1.515s-1.098 0.417-1.515 0l-14.807-14.807c-0.417-0.417-0.417-1.098 0-1.515l15.015-15.022c0.208-0.208 0.486-0.316 0.757-0.316z"></path>
    </symbol>
    <symbol id="chevron-right" viewBox="0 0 32 32">
      <title>chevron-right</title>
      <path d="M8.489 31.975c-0.271 0-0.549-0.107-0.757-0.316-0.417-0.417-0.417-1.098 0-1.515l14.258-14.264-14.050-14.050c-0.417-0.417-0.417-1.098 0-1.515s1.098-0.417 1.515 0l14.807 14.807c0.417 0.417 0.417 1.098 0 1.515l-15.015 15.022c-0.208 0.208-0.486 0.316-0.757 0.316z"></path>
    </symbol>
    <symbol id="info" viewBox="0 0 32 32">
      <title>Info</title>
      <path d="M18 23l-1-0v-8.938c0-0.011-0.003-0.021-0.003-0.031s0.003-0.020 0.003-0.031c0-0.552-0.448-1-1-1h-2c-0.552 0-1 0.448-1 1s0.448 1 1 1h1v8h-1c-0.552 0-1 0.448-1 1s0.448 1 1 1h4c0.552 0 1-0.448 1-1s-0.448-1-1-1zM16 11c1.105 0 2-0.896 2-2s-0.895-2-2-2-2 0.896-2 2 0.896 2 2 2zM16-0c-8.836 0-16 7.163-16 16s7.163 16 16 16c8.837 0 16-7.163 16-16s-7.163-16-16-16zM16 30.031c-7.72 0-14-6.312-14-14.032s6.28-14 14-14 14 6.28 14 14-6.28 14.032-14 14.032z"></path>
    </symbol>
    <symbol id="globe" viewBox="0 0 32 32">
      <title>Globe</title>
      <path d="M32.032 16c0-8.501-6.677-15.472-15.072-15.969-0.173-0.019-0.346-0.032-0.523-0.032-0.052 0-0.104 0.005-0.156 0.007-0.093-0.002-0.186-0.007-0.281-0.007-8.84 0-16.032 7.178-16.032 16.001s7.192 16.001 16.032 16.001c0.094 0 0.188-0.006 0.281-0.008 0.052 0.002 0.104 0.008 0.156 0.008 0.176 0 0.349-0.012 0.523-0.032 8.395-0.497 15.072-7.468 15.072-15.969zM29.049 21.151c-0.551-0.16-1.935-0.507-4.377-0.794 0.202-1.381 0.313-2.84 0.313-4.357 0-1.196-0.069-2.354-0.197-3.469 3.094-0.37 4.45-0.835 4.54-0.867l-0.372-1.050c0.695 1.659 1.080 3.478 1.080 5.386 0 1.818-0.352 3.555-0.987 5.151zM8.921 16c0-1.119 0.074-2.212 0.21-3.263 1.621 0.127 3.561 0.222 5.839 0.243v6.939c-2.219 0.021-4.114 0.111-5.709 0.234-0.22-1.319-0.34-2.715-0.34-4.154zM16.967 2.132c2.452 0.711 4.552 4.115 5.492 8.628-1.512 0.12-3.332 0.209-5.492 0.229v-8.857zM14.971 2.156v8.832c-2.136-0.021-3.965-0.109-5.502-0.226 0.96-4.457 3.076-7.836 5.502-8.606zM14.971 21.913l0 7.929c-2.263-0.718-4.256-3.705-5.293-7.719 1.492-0.11 3.253-0.189 5.292-0.21zM16.967 29.868l-0-7.955c2.061 0.020 3.814 0.102 5.288 0.217-1.019 4.067-3 7.076-5.288 7.738zM16.967 19.92l0-6.939c2.291-0.021 4.218-0.118 5.818-0.25 0.131 1.053 0.203 2.147 0.203 3.268 0 1.442-0.116 2.84-0.329 4.16-1.575-0.128-3.462-0.219-5.692-0.24zM28.588 9.81c-0.302 0.094-1.564 0.453-4.094 0.751-0.564-2.998-1.584-5.561-2.91-7.412 3.048 1.325 5.535 3.697 7.005 6.661zM11.213 2.831c-1.632 1.873-2.963 4.568-3.691 7.754-2.265-0.245-3.623-0.534-4.166-0.665 1.585-3.27 4.407-5.836 7.856-7.088zM2.614 11.787c0.385 0.104 1.841 0.467 4.549 0.766-0.155 1.107-0.24 2.26-0.24 3.447 0 1.509 0.136 2.96 0.383 4.334-2.325 0.251-3.755 0.552-4.396 0.706-0.607-1.566-0.944-3.264-0.944-5.041 0-1.467 0.228-2.883 0.649-4.213zM3.784 22.886c0.727-0.154 2.029-0.39 3.956-0.591 0.759 2.803 1.993 5.175 3.473 6.874-3.16-1.148-5.79-3.398-7.429-6.282v0zM21.583 28.849c1.195-1.665 2.14-3.907 2.728-6.525 1.982 0.227 3.226 0.494 3.853 0.652-1.5 2.596-3.808 4.669-6.581 5.873z"></path>
    </symbol>
    <symbol id="download" viewBox="0 0 24 24">
      <title>Download</title>
      <path d="M15 4h4q1.242 0 2.121 0.879t0.879 2.121v14q0 1.242-0.879 2.121t-2.121 0.879h-14q-1.242 0-2.121-0.879t-0.879-2.121v-14q0-1.242 0.879-2.121t2.121-0.879h4v2h-4q-0.414 0-0.707 0.293t-0.293 0.707v14q0 0.414 0.293 0.707t0.707 0.293h14q0.414 0 0.707-0.293t0.293-0.707v-14q0-0.414-0.293-0.707t-0.707-0.293h-4v-2zM12 0q0.414 0 0.707 0.293t0.293 0.707v12.586l2.289-2.297q0.289-0.289 0.711-0.289 0.43 0 0.715 0.285t0.285 0.715q0 0.422-0.289 0.711l-4 4q-0.289 0.289-0.711 0.289t-0.711-0.289l-4-4q-0.289-0.305-0.289-0.711 0-0.414 0.293-0.707t0.707-0.293q0.422 0 0.711 0.289l2.289 2.297v-12.586q0-0.414 0.293-0.707t0.707-0.293z"></path>
    </symbol>
    <symbol id="speech" viewBox="0 0 32 32">
      <title>Speech</title>
      <path d="M30 1.988h-28c-1.105 0-2 0.895-2 2v18.047c0 1.105 0.895 2 2 2h3.986v4.979c0 0.404 0.242 0.767 0.614 0.922 0.125 0.052 0.257 0.078 0.386 0.078 0.258 0 0.51-0.099 0.701-0.287l5.782-5.692h16.532c1.105 0 2-0.895 2-2v-18.047c0-1.104-0.895-2-2-2zM30 22.034h-17.351l-4.664 4.591v-4.591h-5.986v-18.047h28v18.047zM7 14.031h18c0.552 0 1-0.448 1-1s-0.448-1-1-1h-18c-0.552 0-1 0.448-1 1s0.448 1 1 1zM7 10.031h18c0.552 0 1-0.448 1-1s-0.448-1-1-1h-18c-0.552 0-1 0.448-1 1s0.448 1 1 1zM7 18.032h12c0.552 0 1-0.448 1-1s-0.448-1-1-1h-12c-0.552 0-1 0.448-1 1s0.448 1 1 1z"></path>
    </symbol>
    <symbol id="book" viewBox="0 0 32 32">
      <title>Book</title>
      <path d="M29.753 0.049l-13.22 3.581c-0.336 0.090-1.066 0.089-1.4-0.005l-12.88-3.569c-1.149-0.317-2.263 0.512-2.263 1.696v24.316c0 1.003 0.76 1.962 1.728 2.232l12.88 3.57c0.345 0.096 0.788 0.149 1.248 0.149 0.315 0 0.781-0.024 1.21-0.142l13.22-3.581c0.971-0.262 1.734-1.22 1.734-2.227v-24.317c0.001-1.183-1.113-2.014-2.258-1.703zM15 29.904l-12.779-3.533c-0.096-0.026-0.232-0.203-0.232-0.303v-24.001l12.608 3.486c0.122 0.034 0.259 0.061 0.402 0.083v24.269zM30.010 26.068c0 0.099-0.162 0.27-0.258 0.297l-12.753 3.454v-24.247c0.018-0.005 0.038-0.007 0.056-0.012l12.954-3.504v24.012h0zM20.062 11.447c0.090 0 0.182-0.011 0.272-0.037l6.998-1.97c0.532-0.15 0.842-0.702 0.692-1.234s-0.705-0.84-1.234-0.692l-6.998 1.97c-0.532 0.15-0.842 0.702-0.692 1.234 0.124 0.441 0.525 0.729 0.962 0.729zM20.063 17.447c0.090 0 0.182-0.012 0.272-0.037l6.998-1.97c0.532-0.15 0.842-0.702 0.692-1.234s-0.705-0.84-1.234-0.693l-6.998 1.97c-0.532 0.15-0.842 0.702-0.692 1.233 0.124 0.442 0.525 0.73 0.962 0.73zM20.063 23.447c0.090 0 0.182-0.012 0.272-0.037l6.998-1.97c0.532-0.151 0.842-0.702 0.692-1.234s-0.705-0.84-1.234-0.692l-6.998 1.97c-0.532 0.151-0.842 0.702-0.692 1.234 0.124 0.441 0.525 0.73 0.962 0.73zM12.332 9.484l-6.998-1.97c-0.529-0.147-1.084 0.161-1.234 0.692s0.16 1.083 0.692 1.234l6.998 1.97c0.090 0.025 0.181 0.037 0.271 0.037 0.437 0 0.838-0.288 0.962-0.729 0.149-0.531-0.16-1.083-0.693-1.234zM12.332 15.484l-6.998-1.97c-0.529-0.148-1.084 0.161-1.234 0.693s0.16 1.083 0.692 1.234l6.998 1.97c0.090 0.026 0.181 0.037 0.271 0.037 0.437 0 0.838-0.288 0.962-0.73 0.149-0.531-0.16-1.083-0.693-1.234zM12.332 21.484l-6.998-1.97c-0.529-0.148-1.084 0.161-1.234 0.692s0.16 1.083 0.692 1.234l6.998 1.97c0.090 0.026 0.181 0.037 0.271 0.037 0.437 0 0.838-0.288 0.962-0.73 0.149-0.532-0.16-1.083-0.693-1.234z"></path>
    </symbol>
  </defs>
</svg>
